<?xml version="1.0" encoding="UTF-8" standalone="no"?><!DOCTYPE svg PUBLIC "-//W3C//DTD SVG 1.1//EN" "http://www.w3.org/Graphics/SVG/1.1/DTD/svg11.dtd"><svg width="100%" height="100%" viewBox="0 0 21 21" version="1.1" xmlns="http://www.w3.org/2000/svg" xmlns:xlink="http://www.w3.org/1999/xlink" xml:space="preserve" xmlns:serif="http://www.serif.com/" style="fill-rule:evenodd;clip-rule:evenodd;stroke-linecap:round;stroke-linejoin:round;stroke-miterlimit:1.5;"><g><g><path d="M8.608,0.001l0.109,0.002l0.109,0.003l0.109,0.005l0.108,0.006l0.108,0.008l0.108,0.009l0.107,0.01l0.107,0.011l0.106,0.013l0.107,0.015l0.105,0.015l0.105,0.017l0.105,0.018l0.105,0.019l0.103,0.021l0.104,0.022l0.103,0.023l0.102,0.024l0.102,0.026l0.102,0.027l0.101,0.028l0.101,0.029l0.1,0.03l0.099,0.032l0.099,0.033l0.098,0.034l0.098,0.035l0.098,0.036l0.096,0.038l0.097,0.038l0.095,0.04l0.095,0.041l0.095,0.042l0.093,0.043l0.094,0.045l0.092,0.045l0.092,0.046l0.091,0.048l0.091,0.048l0.09,0.05l0.089,0.051l0.089,0.051l0.088,0.053l0.087,0.054l0.087,0.055l0.085,0.055l0.086,0.057l0.084,0.058l0.084,0.059l0.083,0.059l0.082,0.061l0.081,0.062l0.081,0.062l0.08,0.064l0.079,0.064l0.078,0.066l0.078,0.066l0.076,0.068l0.076,0.068l0.075,0.069l0.075,0.07l0.073,0.07l0.072,0.072l0.072,0.073l0.071,0.073l0.07,0.074l0.069,0.075l0.068,0.076l0.067,0.077l0.067,0.077l0.065,0.079l0.065,0.079l0.063,0.08l0.063,0.08l0.061,0.082l0.061,0.082l0.06,0.083l0.059,0.084l0.057,0.084l0.057,0.085l0.056,0.086l0.055,0.087l0.054,0.087l0.052,0.088l0.052,0.088l0.051,0.09l0.049,0.09l0.049,0.09l0.047,0.092l0.047,0.091l0.045,0.093l0.044,0.093l0.043,0.094l0.042,0.094l0.041,0.095l0.04,0.096l0.039,0.096l0.037,0.097l0.037,0.097l0.035,0.098l0.034,0.099l0.033,0.098l0.031,0.1l0.031,0.1l0.029,0.101l0.028,0.101l0.027,0.101l0.025,0.102l0.025,0.103l0.023,0.103l0.022,0.103l0.02,0.104l0.02,0.104l0.018,0.105l0.017,0.105l0.015,0.106l0.014,0.106l0.013,0.107l0.012,0.106l0.01,0.108l0.009,0.107l0.007,0.108l0.007,0.109l0.004,0.109l0.004,0.109l0.002,0.109l0.001,0.11l-0.001,0.11l-0.002,0.109l-0.004,0.109l-0.004,0.109l-0.007,0.108l-0.007,0.108l-0.009,0.108l-0.01,0.107l-0.012,0.107l-0.013,0.106l-0.014,0.107l-0.015,0.105l-0.017,0.105l-0.018,0.105l-0.02,0.105l-0.02,0.103l-0.022,0.104l-0.023,0.103l-0.025,0.102l-0.025,0.102l-0.027,0.102l-0.028,0.101l-0.029,0.101l-0.031,0.1l-0.031,0.099l-0.033,0.099l-0.034,0.098l-0.035,0.098l-0.037,0.098l-0.037,0.096l-0.039,0.097l-0.04,0.095l-0.041,0.095l-0.042,0.095l-0.043,0.093l-0.044,0.094l-0.045,0.092l-0.047,0.092l-0.047,0.091l-0.049,0.091l-0.049,0.09l-0.051,0.089l-0.052,0.089l-0.052,0.088l-0.054,0.087l-0.055,0.087l-0.056,0.085l-0.057,0.086l-0.057,0.084l-0.059,0.084l-0.06,0.083l-0.061,0.082l-0.061,0.081l-0.063,0.081l-0.063,0.08l-0.065,0.079l-0.065,0.078l-0.067,0.078l-0.067,0.076l-0.068,0.076l-0.069,0.075l-0.07,0.075l-0.071,0.073l-0.072,0.072l-0.072,0.072l-0.073,0.071l-0.075,0.07l-0.075,0.069l-0.076,0.068l-0.076,0.067l-0.078,0.067l-0.078,0.065l-0.079,0.065l-0.08,0.063l-0.081,0.063l-0.081,0.061l-0.082,0.061l-0.083,0.06l-0.084,0.059l-0.084,0.057l-0.086,0.057l-0.085,0.056l-0.087,0.055l-0.087,0.054l-0.088,0.052l-0.089,0.052l-0.089,0.051l-0.09,0.049l-0.091,0.049l-0.091,0.047l-0.092,0.047l-0.092,0.045l-0.094,0.044l-0.093,0.043l-0.095,0.042l-0.095,0.041l-0.095,0.04l-0.097,0.039l-0.096,0.037l-0.098,0.037l-0.098,0.035l-0.098,0.034l-0.099,0.033l-0.099,0.031l-0.1,0.031l-0.101,0.029l-0.101,0.028l-0.102,0.027l-0.102,0.025l-0.102,0.025l-0.103,0.023l-0.104,0.022l-0.103,0.02l-0.105,0.02l-0.105,0.018l-0.105,0.017l-0.105,0.015l-0.107,0.014l-0.106,0.013l-0.107,0.012l-0.107,0.01l-0.108,0.009l-0.108,0.007l-0.108,0.007l-0.109,0.004l-0.109,0.004l-0.109,0.002l-0.11,0.001l-0.11,-0.001l-0.109,-0.002l-0.109,-0.004l-0.109,-0.004l-0.109,-0.007l-0.108,-0.007l-0.107,-0.009l-0.108,-0.01l-0.106,-0.012l-0.107,-0.013l-0.106,-0.014l-0.106,-0.015l-0.105,-0.017l-0.105,-0.018l-0.104,-0.02l-0.104,-0.02l-0.103,-0.022l-0.103,-0.023l-0.103,-0.025l-0.102,-0.025l-0.101,-0.027l-0.101,-0.028l-0.101,-0.029l-0.1,-0.031l-0.1,-0.031l-0.098,-0.033l-0.099,-0.034l-0.098,-0.035l-0.097,-0.037l-0.097,-0.037l-0.096,-0.039l-0.096,-0.04l-0.095,-0.041l-0.094,-0.042l-0.094,-0.043l-0.093,-0.044l-0.093,-0.045l-0.091,-0.047l-0.092,-0.047l-0.09,-0.049l-0.09,-0.049l-0.09,-0.051l-0.088,-0.052l-0.088,-0.052l-0.087,-0.054l-0.087,-0.055l-0.086,-0.056l-0.085,-0.057l-0.084,-0.057l-0.084,-0.059l-0.083,-0.06l-0.082,-0.061l-0.082,-0.061l-0.08,-0.063l-0.08,-0.063l-0.079,-0.065l-0.079,-0.065l-0.077,-0.067l-0.077,-0.067l-0.076,-0.068l-0.075,-0.069l-0.074,-0.07l-0.073,-0.071l-0.073,-0.072l-0.072,-0.072l-0.07,-0.073l-0.07,-0.075l-0.069,-0.075l-0.068,-0.076l-0.068,-0.076l-0.066,-0.078l-0.066,-0.078l-0.064,-0.079l-0.064,-0.08l-0.062,-0.081l-0.062,-0.081l-0.061,-0.082l-0.059,-0.083l-0.059,-0.084l-0.058,-0.084l-0.057,-0.086l-0.055,-0.085l-0.055,-0.087l-0.054,-0.087l-0.053,-0.088l-0.051,-0.089l-0.051,-0.089l-0.05,-0.09l-0.048,-0.091l-0.048,-0.091l-0.046,-0.092l-0.045,-0.092l-0.045,-0.094l-0.043,-0.093l-0.042,-0.095l-0.041,-0.095l-0.04,-0.095l-0.038,-0.097l-0.038,-0.096l-0.036,-0.098l-0.035,-0.098l-0.034,-0.098l-0.033,-0.099l-0.032,-0.099l-0.03,-0.1l-0.029,-0.101l-0.028,-0.101l-0.027,-0.102l-0.026,-0.102l-0.024,-0.102l-0.023,-0.103l-0.022,-0.104l-0.021,-0.103l-0.019,-0.105l-0.018,-0.105l-0.017,-0.105l-0.015,-0.105l-0.015,-0.107l-0.013,-0.106l-0.011,-0.107l-0.01,-0.107l-0.009,-0.108l-0.008,-0.108l-0.006,-0.108l-0.005,-0.109l-0.003,-0.109l-0.002,-0.109l-0.001,-0.11l0.001,-0.11l0.002,-0.109l0.003,-0.109l0.005,-0.109l0.006,-0.109l0.008,-0.108l0.009,-0.107l0.01,-0.108l0.011,-0.106l0.013,-0.107l0.015,-0.106l0.015,-0.106l0.017,-0.105l0.018,-0.105l0.019,-0.104l0.021,-0.104l0.022,-0.103l0.023,-0.103l0.024,-0.103l0.026,-0.102l0.027,-0.101l0.028,-0.101l0.029,-0.101l0.03,-0.1l0.032,-0.1l0.033,-0.098l0.034,-0.099l0.035,-0.098l0.036,-0.097l0.038,-0.097l0.038,-0.096l0.04,-0.096l0.041,-0.095l0.042,-0.094l0.043,-0.094l0.045,-0.093l0.045,-0.093l0.046,-0.091l0.048,-0.092l0.048,-0.09l0.05,-0.09l0.051,-0.09l0.051,-0.088l0.053,-0.088l0.054,-0.087l0.055,-0.087l0.055,-0.086l0.057,-0.085l0.058,-0.084l0.059,-0.084l0.059,-0.083l0.061,-0.082l0.062,-0.082l0.062,-0.08l0.064,-0.08l0.064,-0.079l0.066,-0.079l0.066,-0.077l0.068,-0.077l0.068,-0.076l0.069,-0.075l0.07,-0.074l0.07,-0.073l0.072,-0.073l0.073,-0.072l0.073,-0.07l0.074,-0.07l0.075,-0.069l0.076,-0.068l0.077,-0.068l0.077,-0.066l0.079,-0.066l0.079,-0.064l0.08,-0.064l0.08,-0.062l0.082,-0.062l0.082,-0.061l0.083,-0.059l0.084,-0.059l0.084,-0.058l0.085,-0.057l0.086,-0.055l0.087,-0.055l0.087,-0.054l0.088,-0.053l0.088,-0.051l0.09,-0.051l0.09,-0.05l0.09,-0.048l0.092,-0.048l0.091,-0.046l0.093,-0.045l0.093,-0.045l0.094,-0.043l0.094,-0.042l0.095,-0.041l0.096,-0.04l0.096,-0.038l0.097,-0.038l0.097,-0.036l0.098,-0.035l0.099,-0.034l0.098,-0.033l0.1,-0.032l0.1,-0.03l0.101,-0.029l0.101,-0.028l0.101,-0.027l0.102,-0.026l0.103,-0.024l0.103,-0.023l0.103,-0.022l0.104,-0.021l0.104,-0.019l0.105,-0.018l0.105,-0.017l0.106,-0.015l0.106,-0.015l0.107,-0.013l0.106,-0.011l0.108,-0.01l0.107,-0.009l0.108,-0.008l0.109,-0.006l0.109,-0.005l0.109,-0.003l0.109,-0.002l0.11,-0.001l0.11,0.001Zm-0.195,2l-0.084,0.001l-0.083,0.003l-0.084,0.003l-0.082,0.005l-0.084,0.006l-0.082,0.007l-0.082,0.008l-0.083,0.009l-0.08,0.009l-0.081,0.011l-0.081,0.012l-0.081,0.013l-0.08,0.014l-0.079,0.014l-0.079,0.016l-0.08,0.017l-0.078,0.017l-0.078,0.019l-0.078,0.02l-0.078,0.02l-0.076,0.021l-0.077,0.023l-0.077,0.023l-0.075,0.024l-0.076,0.025l-0.075,0.026l-0.075,0.027l-0.074,0.028l-0.073,0.028l-0.074,0.03l-0.074,0.03l-0.071,0.031l-0.072,0.032l-0.073,0.034l-0.071,0.033l-0.069,0.034l-0.071,0.036l-0.07,0.037l-0.069,0.037l-0.069,0.038l-0.069,0.038l-0.067,0.04l-0.067,0.04l-0.067,0.041l-0.066,0.042l-0.066,0.043l-0.065,0.043l-0.065,0.044l-0.065,0.046l-0.063,0.045l-0.062,0.046l-0.063,0.048l-0.062,0.048l-0.06,0.048l-0.061,0.05l-0.06,0.05l-0.06,0.051l-0.058,0.052l-0.058,0.051l-0.058,0.054l-0.057,0.053l-0.056,0.054l-0.055,0.055l-0.056,0.056l-0.054,0.057l-0.053,0.056l-0.053,0.058l-0.053,0.058l-0.051,0.058l-0.051,0.06l-0.05,0.06l-0.05,0.061l-0.048,0.061l-0.048,0.061l-0.047,0.063l-0.047,0.063l-0.045,0.063l-0.046,0.065l-0.044,0.063l-0.043,0.065l-0.043,0.067l-0.042,0.066l-0.041,0.067l-0.04,0.067l-0.04,0.068l-0.039,0.068l-0.038,0.069l-0.037,0.069l-0.036,0.07l-0.035,0.069l-0.035,0.071l-0.034,0.072l-0.032,0.071l-0.032,0.072l-0.032,0.074l-0.03,0.072l-0.03,0.073l-0.028,0.074l-0.028,0.075l-0.027,0.075l-0.026,0.074l-0.025,0.075l-0.024,0.077l-0.023,0.076l-0.022,0.076l-0.022,0.078l-0.021,0.077l-0.019,0.078l-0.019,0.078l-0.017,0.079l-0.017,0.079l-0.016,0.079l-0.014,0.079l-0.014,0.081l-0.013,0.079l-0.012,0.081l-0.011,0.082l-0.009,0.081l-0.009,0.082l-0.008,0.082l-0.007,0.083l-0.006,0.082l-0.004,0.082l-0.004,0.085l-0.003,0.084l-0.001,0.083l-0.001,0.085l0.001,0.084l0.001,0.084l0.003,0.084l0.004,0.084l0.004,0.083l0.006,0.082l0.007,0.083l0.008,0.082l0.009,0.081l0.009,0.082l0.011,0.081l0.012,0.081l0.013,0.08l0.014,0.08l0.014,0.08l0.016,0.079l0.017,0.079l0.017,0.079l0.019,0.078l0.019,0.077l0.021,0.078l0.022,0.078l0.022,0.076l0.023,0.076l0.024,0.076l0.025,0.076l0.026,0.074l0.027,0.074l0.028,0.076l0.028,0.074l0.03,0.073l0.03,0.072l0.032,0.074l0.031,0.071l0.033,0.072l0.034,0.071l0.035,0.071l0.035,0.07l0.037,0.07l0.036,0.069l0.038,0.069l0.039,0.068l0.039,0.067l0.041,0.067l0.041,0.067l0.042,0.067l0.043,0.066l0.044,0.066l0.043,0.063l0.045,0.064l0.046,0.064l0.047,0.063l0.047,0.062l0.048,0.062l0.048,0.061l0.05,0.06l0.05,0.061l0.051,0.059l0.052,0.059l0.052,0.058l0.053,0.057l0.053,0.058l0.055,0.056l0.054,0.055l0.056,0.055l0.056,0.054l0.057,0.054l0.058,0.053l0.058,0.052l0.059,0.052l0.059,0.051l0.06,0.05l0.06,0.049l0.061,0.048l0.062,0.049l0.063,0.047l0.062,0.046l0.064,0.046l0.065,0.046l0.063,0.043l0.066,0.044l0.066,0.043l0.065,0.041l0.068,0.042l0.068,0.04l0.067,0.04l0.068,0.038l0.069,0.038l0.069,0.037l0.07,0.036l0.07,0.036l0.07,0.034l0.072,0.034l0.071,0.033l0.072,0.032l0.073,0.032l0.073,0.03l0.073,0.029l0.074,0.029l0.075,0.028l0.074,0.027l0.075,0.025l0.076,0.025l0.076,0.025l0.076,0.023l0.076,0.022l0.078,0.022l0.078,0.02l0.077,0.02l0.078,0.018l0.079,0.018l0.079,0.017l0.079,0.015l0.079,0.015l0.08,0.014l0.08,0.012l0.081,0.012l0.082,0.011l0.081,0.01l0.082,0.009l0.082,0.008l0.083,0.007l0.082,0.005l0.082,0.005l0.085,0.004l0.084,0.002l0.083,0.002l0.085,0.001l0.084,-0.001l0.083,-0.002l0.085,-0.002l0.084,-0.004l0.083,-0.005l0.082,-0.005l0.083,-0.007l0.082,-0.008l0.081,-0.009l0.082,-0.01l0.081,-0.011l0.081,-0.012l0.08,-0.012l0.08,-0.014l0.08,-0.015l0.079,-0.015l0.079,-0.017l0.079,-0.018l0.078,-0.018l0.077,-0.02l0.078,-0.02l0.078,-0.022l0.076,-0.022l0.076,-0.023l0.076,-0.025l0.076,-0.025l0.074,-0.025l0.075,-0.027l0.075,-0.028l0.074,-0.029l0.073,-0.029l0.072,-0.03l0.074,-0.032l0.072,-0.032l0.07,-0.032l0.072,-0.035l0.071,-0.034l0.069,-0.035l0.071,-0.037l0.069,-0.037l0.068,-0.038l0.069,-0.038l0.067,-0.04l0.067,-0.04l0.068,-0.042l0.066,-0.041l0.066,-0.043l0.065,-0.044l0.064,-0.043l0.064,-0.046l0.064,-0.045l0.063,-0.047l0.062,-0.047l0.062,-0.048l0.062,-0.049l0.06,-0.049l0.059,-0.05l0.06,-0.051l0.058,-0.052l0.059,-0.052l0.058,-0.054l0.057,-0.053l0.056,-0.054l0.055,-0.055l0.055,-0.056l0.054,-0.055l0.054,-0.058l0.053,-0.057l0.052,-0.058l0.052,-0.059l0.05,-0.059l0.05,-0.06l0.05,-0.061l0.048,-0.061l0.049,-0.062l0.047,-0.063l0.046,-0.062l0.046,-0.063l0.045,-0.065l0.044,-0.064l0.044,-0.065l0.043,-0.066l0.042,-0.067l0.041,-0.067l0.04,-0.066l0.039,-0.068l0.039,-0.068l0.038,-0.069l0.037,-0.069l0.036,-0.07l0.036,-0.071l0.034,-0.07l0.034,-0.071l0.033,-0.073l0.032,-0.071l0.031,-0.072l0.031,-0.073l0.029,-0.074l0.029,-0.073l0.028,-0.075l0.027,-0.075l0.026,-0.075l0.025,-0.075l0.023,-0.075l0.024,-0.077l0.022,-0.077l0.021,-0.076l0.021,-0.078l0.02,-0.079l0.018,-0.077l0.018,-0.078l0.016,-0.08l0.016,-0.079l0.015,-0.08l0.014,-0.08l0.013,-0.081l0.011,-0.081l0.011,-0.08l0.01,-0.082l0.009,-0.081l0.008,-0.081l0.006,-0.083l0.006,-0.084l0.005,-0.083l0.004,-0.083l0.002,-0.084l0.002,-0.084l0.001,-0.084l-0.001,-0.085l-0.002,-0.084l-0.002,-0.083l-0.004,-0.084l-0.005,-0.082l-0.006,-0.084l-0.006,-0.083l-0.008,-0.081l-0.009,-0.082l-0.01,-0.081l-0.011,-0.081l-0.011,-0.081l-0.013,-0.08l-0.014,-0.081l-0.015,-0.079l-0.016,-0.079l-0.016,-0.08l-0.018,-0.078l-0.018,-0.078l-0.02,-0.078l-0.021,-0.078l-0.021,-0.076l-0.022,-0.077l-0.024,-0.077l-0.024,-0.076l-0.024,-0.074l-0.026,-0.075l-0.028,-0.076l-0.027,-0.074l-0.029,-0.073l-0.029,-0.074l-0.031,-0.073l-0.031,-0.072l-0.032,-0.072l-0.033,-0.072l-0.034,-0.072l-0.034,-0.07l-0.035,-0.07l-0.037,-0.07l-0.037,-0.069l-0.038,-0.069l-0.039,-0.069l-0.039,-0.068l-0.04,-0.066l-0.041,-0.067l-0.042,-0.066l-0.043,-0.066l-0.043,-0.065l-0.045,-0.065l-0.045,-0.065l-0.045,-0.062l-0.047,-0.062l-0.047,-0.064l-0.048,-0.061l-0.049,-0.061l-0.05,-0.061l-0.05,-0.06l-0.051,-0.06l-0.05,-0.058l-0.053,-0.058l-0.053,-0.058l-0.053,-0.056l-0.054,-0.056l-0.056,-0.057l-0.056,-0.055l-0.055,-0.054l-0.057,-0.053l-0.058,-0.054l-0.059,-0.052l-0.057,-0.051l-0.06,-0.051l-0.06,-0.05l-0.061,-0.049l-0.061,-0.049l-0.062,-0.048l-0.063,-0.048l-0.062,-0.046l-0.063,-0.045l-0.065,-0.046l-0.065,-0.044l-0.064,-0.043l-0.066,-0.043l-0.067,-0.042l-0.067,-0.041l-0.066,-0.04l-0.068,-0.04l-0.069,-0.039l-0.068,-0.037l-0.069,-0.037l-0.071,-0.037l-0.07,-0.035l-0.07,-0.035l-0.071,-0.034l-0.072,-0.033l-0.072,-0.032l-0.072,-0.031l-0.073,-0.03l-0.074,-0.03l-0.073,-0.028l-0.074,-0.028l-0.076,-0.027l-0.075,-0.026l-0.075,-0.025l-0.075,-0.024l-0.077,-0.023l-0.077,-0.023l-0.076,-0.021l-0.078,-0.02l-0.079,-0.02l-0.077,-0.019l-0.078,-0.017l-0.08,-0.017l-0.079,-0.016l-0.08,-0.014l-0.08,-0.014l-0.081,-0.013l-0.081,-0.012l-0.08,-0.011l-0.081,-0.009l-0.082,-0.009l-0.082,-0.008l-0.082,-0.007l-0.084,-0.006l-0.083,-0.005l-0.083,-0.003l-0.084,-0.003l-0.084,-0.001l-0.084,-0.001l-0.085,0.001Z" style="fill:#fff;"/><path d="M20,20l-6.009,-6.009" style="fill:none;stroke:#fff;stroke-width:2px;"/></g><g><path d="M8.498,5.622l0,5.751" style="fill:none;stroke:#fff;stroke-width:2px;"/><path d="M11.373,8.498l-5.751,0" style="fill:none;stroke:#fff;stroke-width:2px;"/></g></g></svg>